<?xml version="1.0" standalone="no"?>
<!DOCTYPE svg PUBLIC "-//W3C//DTD SVG 20010904//EN"
 "http://www.w3.org/TR/2001/REC-SVG-20010904/DTD/svg10.dtd">
<svg version="1.0" xmlns="http://www.w3.org/2000/svg"
 width="500.000000pt" height="500.000000pt" viewBox="0 0 500.000000 500.000000"
 preserveAspectRatio="xMidYMid meet">

<g transform="translate(0.000000,500.000000) scale(0.100000,-0.100000)"
fill="#000000" stroke="none">
<path d="M3121 3653 l-395 -3 70 -34 c114 -55 199 -159 252 -309 36 -103 36
-250 -1 -357 l-25 -75 28 -30 c89 -93 143 -239 143 -385 0 -223 -106 -411
-278 -495 l-70 -35 316 0 316 0 55 123 55 122 280 3 280 2 28 -67 c16 -38 41
-94 57 -125 l28 -58 180 0 c99 0 180 2 180 4 0 3 -19 47 -41 98 -23 51 -54
122 -69 158 -16 36 -46 106 -68 155 -69 158 -322 734 -397 905 -40 91 -96 220
-126 288 l-53 122 -175 -2 c-97 -2 -354 -4 -570 -5z m805 -971 l51 -117 -105
-3 c-57 -1 -107 -1 -109 2 -3 2 19 59 48 125 29 67 55 118 58 115 3 -3 29 -58
57 -122z"/>
<path d="M380 2770 l0 -840 170 0 170 0 0 230 0 230 198 0 199 0 143 -230 143
-230 205 0 204 0 -18 28 c-10 15 -52 83 -95 152 -42 69 -106 172 -142 229
l-65 104 59 39 c160 107 262 311 262 523 -1 259 -155 493 -382 579 -54 20 -74
21 -553 24 l-498 3 0 -841z m966 453 c82 -44 126 -121 127 -223 1 -84 -36
-157 -103 -203 l-45 -32 -302 -3 -303 -3 0 246 0 246 293 -3 c279 -3 294 -4
333 -25z"/>
<path d="M2132 3128 l3 -143 255 0 c230 0 259 2 283 18 85 55 90 184 11 246
-26 20 -38 21 -291 21 l-264 0 3 -142z"/>
<path d="M2137 2593 c-4 -3 -7 -69 -7 -145 l0 -138 318 0 c297 0 319 1 349 20
18 10 39 33 48 49 22 43 19 119 -5 159 -36 59 -56 62 -393 62 -167 0 -307 -3
-310 -7z"/>
<path d="M514 1769 c-18 -5 -46 -25 -63 -44 -43 -49 -43 -101 0 -149 34 -40
79 -56 155 -56 60 0 90 -24 80 -63 -9 -36 -47 -47 -161 -47 l-105 0 0 -35 0
-35 118 0 c93 0 125 4 159 19 49 23 75 58 76 105 2 81 -53 125 -169 133 -65 5
-78 9 -91 30 -14 21 -14 25 0 47 19 28 54 36 159 36 l79 0 -3 33 -3 32 -100 2
c-55 1 -114 -3 -131 -8z"/>
<path d="M1010 1767 c-148 -41 -217 -169 -159 -292 35 -73 141 -135 234 -135
126 0 254 110 255 218 0 73 -60 159 -136 192 -57 25 -140 32 -194 17z m160
-85 c49 -24 80 -75 80 -130 0 -38 -5 -50 -38 -82 -63 -64 -153 -74 -224 -26
-97 66 -96 167 2 234 42 28 129 30 180 4z"/>
<path d="M1417 1773 c-4 -3 -7 -19 -7 -35 l0 -28 180 0 180 0 0 35 0 35 -173
0 c-96 0 -177 -3 -180 -7z"/>
<path d="M1850 1745 l0 -35 65 0 65 0 2 -182 3 -183 43 -3 42 -3 0 185 0 186
71 0 70 0 -3 33 -3 32 -177 3 -178 2 0 -35z"/>
<path d="M2290 1761 c0 -11 20 -86 45 -168 25 -81 52 -172 61 -200 l15 -53 44
0 43 0 21 68 c11 37 30 101 42 142 l22 75 14 -45 c7 -25 26 -88 42 -140 l28
-95 44 -3 45 -3 34 113 c66 219 90 303 90 316 0 9 -12 12 -42 10 l-42 -3 -27
-95 c-48 -165 -56 -186 -62 -170 -3 8 -22 72 -43 143 l-38 127 -42 0 -42 0
-32 -102 c-17 -57 -37 -121 -44 -143 l-13 -40 -22 75 c-12 41 -32 105 -43 143
l-20 67 -39 0 c-32 0 -39 -4 -39 -19z"/>
<path d="M2971 1567 c-50 -118 -91 -218 -91 -221 0 -3 19 -6 43 -6 l43 0 57
133 c31 72 61 145 67 161 6 17 14 25 19 20 5 -5 28 -54 51 -109 90 -213 85
-205 130 -205 23 0 40 5 40 11 0 7 -18 53 -39 103 -22 50 -62 143 -89 206
l-49 115 -46 3 -45 3 -91 -214z"/>
<path d="M3360 1745 l0 -35 100 0 c126 0 170 -15 170 -59 0 -16 -6 -33 -12
-38 -7 -4 -67 -10 -133 -13 l-120 -5 -3 -37 -3 -37 97 -3 97 -3 36 -85 36 -85
43 -3 c26 -2 42 1 42 8 0 6 -16 49 -36 95 l-36 84 35 34 c58 54 61 114 8 167
-38 38 -87 50 -213 50 l-108 0 0 -35z"/>
<path d="M3800 1745 l0 -35 175 0 175 0 0 35 0 35 -175 0 -175 0 0 -35z"/>
<path d="M4325 1770 c-48 -15 -86 -61 -92 -113 -5 -39 -1 -48 27 -80 35 -41
79 -57 156 -57 60 0 90 -24 80 -63 -9 -36 -47 -47 -161 -47 l-105 0 0 -36 0
-36 133 4 c119 3 135 5 165 26 43 31 66 76 58 115 -15 74 -62 105 -169 114
-82 7 -97 15 -97 53 0 45 22 54 137 58 l104 4 -3 32 -3 31 -100 2 c-55 1 -114
-3 -130 -7z"/>
<path d="M1414 1587 c-2 -7 -3 -65 -2 -128 l3 -114 43 -3 42 -3 0 90 0 91 105
0 105 0 0 34 c0 22 -6 36 -16 40 -9 3 -74 6 -145 6 -98 0 -131 -3 -135 -13z"/>
<path d="M3800 1560 l0 -40 145 0 145 0 0 40 0 40 -145 0 -145 0 0 -40z"/>
<path d="M3800 1375 l0 -35 175 0 175 0 0 35 0 35 -175 0 -175 0 0 -35z"/>
</g>
</svg>
